# Blender v2.93.5 OBJ File: ''
# www.blender.org
o Sphere.002
v -0.348598 0.771321 -1.808168
v 0.022242 1.355507 -1.551418
v 0.870358 0.780529 -1.653191
v 0.764235 0.233449 -1.703594
v 0.431470 1.583740 -1.115754
v 1.515280 0.773068 -1.185736
v 0.162386 1.917300 -0.497055
v 1.747557 0.978438 -0.555010
v 1.900012 0.245727 -0.510278
v 1.479705 0.154778 -1.167333
v 1.750770 -0.080815 0.244462
v 1.272763 -0.327220 -0.781557
v 1.558451 1.221583 -0.074189
v 1.719940 0.826844 0.778419
v 1.984998 0.571503 -0.115855
v 1.760213 0.271534 0.757370
v 0.930969 -0.557811 -0.236485
v 0.496809 -0.599812 0.543233
v 0.932342 -0.268915 1.081885
v 1.329698 1.280888 0.542812
v 0.020373 1.734906 0.368873
v 1.123623 0.452895 1.469266
v 1.117296 0.116157 1.352015
v 0.301158 1.580936 1.048179
v 0.652744 1.321965 1.279112
v 0.219430 0.994855 1.654245
v -0.406146 0.222360 1.846802
v -0.267939 1.416495 1.340531
v -0.344130 -0.118875 1.655437
v -0.641167 -0.506108 0.711109
v -0.544520 1.012168 1.634972
v -0.956454 -0.286990 1.553617
v -0.489661 1.901953 -0.177675
v -1.380914 -0.013369 1.529474
v -1.261349 1.081645 1.145737
v -0.592965 -0.597766 -0.501392
v 0.130493 -0.667589 0.166230
v -1.561450 0.662993 1.284107
v -1.819605 0.138065 0.893484
v -1.772471 -0.126667 0.341513
v -1.318009 1.513621 -0.160482
v -1.303405 -0.330493 1.130319
v -1.875722 0.812971 -0.336825
v -1.895571 0.596581 -0.692362
v -1.547126 0.268336 -1.120342
v -1.561159 0.659440 -1.215895
v -1.669253 1.088747 -0.849065
v -0.803271 1.788537 -0.832538
v -0.790344 1.479284 -1.330010
v -1.203265 -0.330202 -0.657483
v -0.559217 -0.265176 -1.319169
v 0.262418 -0.617355 -0.686513
v -0.265246 1.953192 -0.735128
v -0.355025 0.213511 -1.746435
v 0.431877 -0.157092 -1.545664
vt 0.829829 0.620775
vt 0.768683 0.696190
vt 0.730011 0.529022
vt 0.759706 0.455122
vt 0.694601 0.708330
vt 0.670356 0.469687
vt 0.613267 0.824945
vt 0.611658 0.463564
vt 0.624621 0.344114
vt 0.692698 0.377101
vt 0.560400 0.254018
vt 0.702169 0.269776
vt 0.566585 0.497023
vt 0.499143 0.399290
vt 0.582443 0.375966
vt 0.503287 0.307958
vt 0.699563 0.143717
vt 0.308987 0.069738
vt 0.398880 0.206488
vt 0.503809 0.501851
vt 0.426671 0.785990
vt 0.412020 0.353822
vt 0.410790 0.292764
vt 0.395689 0.628369
vt 0.406016 0.534050
vt 0.346849 0.497121
vt 0.267721 0.417487
vt 0.323441 0.624246
vt 0.253492 0.357970
vt 0.142377 0.301193
vt 0.283577 0.555539
vt 0.200608 0.391374
vt 0.442771 0.963504
vt 0.187390 0.462426
vt 0.213740 0.639455
vt 1.142377 0.301193
vt 0.969164 0.330488
vt 1.036399 0.096262
vt 0.187878 0.575517
vt 0.137302 0.528482
vt 0.090536 0.505805
vt 0.085010 0.836103
vt 1.156633 0.418517
vt 1.090536 0.505805
vt 0.047341 0.685315
vt 0.013314 0.654209
vt 1.013314 0.654209
vt 0.965712 0.598237
vt 0.956261 0.661647
vt 0.990883 0.737541
vt 0.870526 0.890800
vt 0.857009 0.785594
vt 0.988428 0.463903
vt 0.895829 0.450164
vt 0.849060 0.233224
vt 0.704343 0.885368
vt 0.850106 0.530832
vt 0.798658 0.405337
vt 0.036399 0.096262
vt 0.156633 0.418517
vt 1.085010 0.836103
vt 1.047341 0.685315
vn 0.1162 0.3369 -0.9344
vn 0.1253 0.0669 -0.9899
vn 0.3573 0.6464 -0.6742
vn 0.4493 0.6533 -0.6094
vn 0.4882 0.8391 -0.2400
vn 0.4891 0.8402 -0.2341
vn 0.4884 0.8393 -0.2388
vn 0.9069 0.1650 -0.3877
vn 0.8447 -0.0644 -0.5314
vn 0.7027 -0.6931 -0.1609
vn 0.8544 0.5140 0.0761
vn 0.8201 0.5664 0.0814
vn 0.9488 -0.3115 0.0528
vn 0.9616 0.0596 0.2680
vn 0.4127 -0.8925 0.1817
vn 0.6053 -0.6612 0.4431
vn 0.2889 0.9261 0.2425
vn 0.7488 0.0292 0.6622
vn 0.6893 -0.2497 0.6800
vn 0.3166 0.9449 0.0833
vn 0.4100 0.8505 0.3295
vn 0.4079 0.4005 0.8205
vn 0.2315 0.0547 0.9713
vn 0.1203 0.7467 0.6542
vn -0.0193 -0.9229 0.3845
vn -0.0069 0.5918 0.8061
vn -0.1356 0.9527 0.2720
vn 0.2018 -0.9268 0.3166
vn 0.0842 0.9722 0.2186
vn -0.3446 0.1864 0.9201
vn -0.0102 -0.4905 0.8714
vn -0.3476 0.9166 0.1972
vn -0.1580 -0.9851 0.0682
vn -0.8247 -0.0151 0.5653
vn -0.6518 -0.7040 0.2820
vn -0.3993 0.8652 0.3034
vn -0.3792 -0.9252 -0.0136
vn -0.9987 0.0088 0.0504
vn -0.8134 -0.5176 -0.2653
vn -0.8225 -0.1627 -0.5449
vn -0.8336 0.2223 -0.5058
vn -0.5564 0.6991 -0.4491
vn -0.4819 -0.6923 -0.5371
vn -0.0368 -0.9972 -0.0644
vn -0.4411 0.2968 -0.8470
vn -0.0417 0.7991 -0.5998
vn -0.1615 0.4812 -0.8616
vn -0.1030 -0.9199 -0.3784
vn 0.0400 -0.1104 -0.9931
vn 0.0422 -0.4052 -0.9133
vn -0.0123 -0.8804 -0.4741
vn 0.2755 0.8911 -0.3606
vn 0.2119 -0.8782 -0.4287
vn 0.2467 -0.9383 -0.2423
vn 0.5855 -0.0578 -0.8086
vn 0.4203 -0.6701 -0.6118
vn 0.1510 -0.9880 0.0309
vn 0.5222 0.7354 -0.4318
vn 0.7087 -0.6006 -0.3702
vn 0.4893 0.8405 -0.2326
vn 0.9243 0.1715 -0.3408
vn 0.2769 -0.4312 0.8587
vn 0.5184 -0.8544 -0.0363
vn 0.4274 0.9012 0.0718
vn 0.9539 -0.2553 0.1578
vn 0.6935 0.6948 0.1903
vn 0.4159 -0.8854 0.2076
vn 0.6032 -0.6315 0.4872
vn 0.5420 0.7040 0.4590
vn 0.5417 0.4490 0.7106
vn -0.7892 0.5720 0.2234
vn 0.2536 -0.6342 0.7304
vn 0.1026 -0.8824 0.4591
vn 0.1180 0.6769 0.7265
vn -0.0186 0.2560 0.9665
vn -0.3569 0.6970 0.6219
vn -0.0476 -0.9740 0.2213
vn -0.2347 -0.2819 0.9303
vn -0.4347 0.5479 0.7148
vn -0.3853 0.2221 0.8957
vn -0.1823 0.8798 0.4390
vn -0.4945 -0.7248 0.4798
vn -0.1279 -0.9705 0.2045
vn -0.9301 0.3024 0.2083
vn -0.7620 -0.5709 0.3056
vn -0.2879 0.9573 -0.0279
vn -0.2171 -0.9740 0.0650
vn -0.9853 -0.1708 -0.0022
vn -0.3933 -0.9187 -0.0369
vn -0.7844 0.6200 0.0176
vn -0.9147 0.3659 -0.1717
vn -0.7213 -0.6326 -0.2821
vn -0.4299 -0.0944 -0.8979
vn -0.6187 0.7694 -0.1591
vn -0.5738 0.4437 -0.6884
vn 0.0266 0.9944 0.1021
vn -0.2918 -0.8818 -0.3706
vn -0.4212 -0.4973 -0.7585
vn -0.1611 0.8363 -0.5241
vn -0.1051 -0.6369 -0.7638
vn 0.1325 0.8214 -0.5548
vn 0.5963 -0.0418 -0.8017
vn 0.4229 -0.6252 -0.6560
vn 0.1157 -0.9925 -0.0406
vn 0.2419 -0.3231 0.9149
vn -0.7623 0.6141 0.2046
vn -0.4232 0.9048 0.0460
vn -0.4611 -0.2262 -0.8581
s 1
f 1/1/1 2/2/1 3/3/1
f 1/1/2 3/3/2 4/4/2
f 2/2/3 5/5/3 3/3/3
f 3/3/4 5/5/4 6/6/4
f 5/5/5 7/7/6 8/8/7
f 6/6/8 8/8/8 9/9/8
f 6/6/9 9/9/9 10/10/9
f 9/9/10 11/11/10 12/12/10
f 13/13/11 14/14/11 8/8/11
f 8/8/12 14/14/12 15/15/12
f 15/15/13 11/11/13 9/9/13
f 14/14/14 16/16/14 15/15/14
f 17/17/15 11/11/15 18/18/15
f 11/11/16 16/16/16 19/19/16
f 20/20/17 7/7/17 21/21/17
f 14/14/18 22/22/18 16/16/18
f 16/16/19 22/22/19 23/23/19
f 21/21/20 24/24/20 20/20/20
f 24/24/21 25/25/21 20/20/21
f 25/25/22 26/26/22 22/22/22
f 26/26/23 27/27/23 22/22/23
f 25/25/24 24/24/24 28/28/24
f 18/18/25 29/29/25 30/30/25
f 26/26/26 28/28/26 31/31/26
f 24/24/27 21/21/27 28/28/27
f 29/29/28 32/32/28 30/30/28
f 21/21/29 7/7/29 33/33/29
f 27/27/30 31/31/30 34/34/30
f 27/27/31 32/32/31 29/29/31
f 28/28/32 21/21/32 35/35/32
f 30/36/33 36/37/33 37/38/33
f 38/39/34 39/40/34 34/34/34
f 39/40/35 40/41/35 34/34/35
f 33/33/36 41/42/36 35/35/36
f 42/43/37 40/44/37 36/37/37
f 43/45/38 44/46/38 39/40/38
f 44/47/39 45/48/39 40/44/39
f 44/47/40 46/49/40 45/48/40
f 47/50/41 46/49/41 44/47/41
f 48/51/42 49/52/42 47/50/42
f 50/53/43 45/48/43 51/54/43
f 37/38/44 36/37/44 52/55/44
f 49/52/45 1/1/45 46/49/45
f 49/52/46 53/56/46 2/2/46
f 49/52/47 2/2/47 1/1/47
f 51/54/48 52/55/48 36/37/48
f 54/57/49 1/1/49 4/4/49
f 55/58/50 54/57/50 4/4/50
f 51/54/51 55/58/51 52/55/51
f 5/5/52 53/56/52 7/7/52
f 55/58/53 12/12/53 52/55/53
f 52/55/54 12/12/54 17/17/54
f 10/10/55 3/3/55 6/6/55
f 55/58/56 10/10/56 12/12/56
f 37/38/57 17/17/57 18/18/57
f 6/6/58 5/5/58 8/8/58
f 10/10/59 9/9/59 12/12/59
f 8/8/7 7/7/6 13/13/60
f 9/9/61 8/8/61 15/15/61
f 29/29/62 22/22/62 27/27/62
f 12/12/63 11/11/63 17/17/63
f 13/13/64 7/7/64 20/20/64
f 11/11/65 15/15/65 16/16/65
f 13/13/66 20/20/66 14/14/66
f 18/18/67 11/11/67 19/19/67
f 19/19/68 16/16/68 23/23/68
f 20/20/69 25/25/69 14/14/69
f 14/14/70 25/25/70 22/22/70
f 43/45/71 35/35/71 41/42/71
f 19/19/72 23/23/72 29/29/72
f 18/18/73 19/19/73 29/29/73
f 25/25/74 28/28/74 26/26/74
f 26/26/75 31/31/75 27/27/75
f 31/31/76 28/28/76 35/35/76
f 18/18/77 30/30/77 37/59/77
f 27/27/78 34/34/78 32/32/78
f 31/31/79 35/35/79 38/39/79
f 31/31/80 38/39/80 34/34/80
f 21/21/81 33/33/81 35/35/81
f 32/32/82 34/34/82 42/60/82
f 30/30/83 32/32/83 42/60/83
f 38/39/84 43/45/84 39/40/84
f 42/60/85 34/34/85 40/41/85
f 48/51/86 33/33/86 53/56/86
f 30/36/87 42/43/87 36/37/87
f 39/40/88 44/46/88 40/41/88
f 36/37/89 40/44/89 50/53/89
f 41/61/90 47/50/90 43/62/90
f 43/62/91 47/50/91 44/47/91
f 40/44/92 45/48/92 50/53/92
f 54/57/93 46/49/93 1/1/93
f 41/61/94 48/51/94 47/50/94
f 47/50/95 49/52/95 46/49/95
f 33/33/96 7/7/96 53/56/96
f 36/37/97 50/53/97 51/54/97
f 51/54/98 45/48/98 54/57/98
f 48/51/99 53/56/99 49/52/99
f 51/54/100 54/57/100 55/58/100
f 2/2/101 53/56/101 5/5/101
f 10/10/102 4/4/102 3/3/102
f 55/58/103 4/4/103 10/10/103
f 37/38/104 52/55/104 17/17/104
f 29/29/105 23/23/105 22/22/105
f 43/45/106 38/39/106 35/35/106
f 48/51/107 41/61/107 33/33/107
f 54/57/108 45/48/108 46/49/108
